<svg xmlns="http://www.w3.org/2000/svg" xmlns:xlink="http://www.w3.org/1999/xlink" width="500" zoomAndPan="magnify" viewBox="0 0 375 374.999991" height="500" preserveAspectRatio="xMidYMid meet" version="1.0"><defs><clipPath id="7dc820f681"><path d="M 9 9.65625 L 365.984375 9.65625 L 365.984375 365.15625 L 9 365.15625 Z M 9 9.65625 " clip-rule="nonzero"/></clipPath><clipPath id="bc70e5aee2"><path d="M 124 0.839844 L 356.984375 0.839844 L 356.984375 356.15625 L 124 356.15625 Z M 124 0.839844 " clip-rule="nonzero"/></clipPath><clipPath id="486f647a29"><rect x="0" width="357" y="0" height="357"/></clipPath></defs><g clip-path="url(#7dc820f681)"><g transform="matrix(1, 0, 0, 1, 9, 9)"><g clip-path="url(#486f647a29)"><path fill="#6c757d" d="M 7.128906 165.503906 L 76.425781 96.207031 C 76.851562 95.78125 77.296875 95.378906 77.765625 94.996094 C 78.230469 94.613281 78.710938 94.253906 79.210938 93.921875 C 79.710938 93.585938 80.226562 93.277344 80.757812 92.996094 C 81.289062 92.710938 81.832031 92.453125 82.390625 92.222656 C 82.945312 91.992188 83.511719 91.789062 84.085938 91.617188 C 84.664062 91.441406 85.246094 91.292969 85.835938 91.175781 C 86.425781 91.058594 87.019531 90.972656 87.621094 90.914062 C 88.21875 90.855469 88.820312 90.824219 89.421875 90.824219 C 90.023438 90.824219 90.625 90.855469 91.222656 90.914062 C 91.820312 90.972656 92.417969 91.058594 93.007812 91.175781 C 93.597656 91.292969 94.179688 91.441406 94.757812 91.617188 C 95.332031 91.789062 95.898438 91.992188 96.453125 92.222656 C 97.011719 92.453125 97.554688 92.710938 98.085938 92.992188 C 98.613281 93.277344 99.128906 93.585938 99.628906 93.921875 C 100.132812 94.253906 100.613281 94.613281 101.078125 94.996094 C 101.542969 95.378906 101.988281 95.78125 102.414062 96.207031 C 102.839844 96.632812 103.246094 97.078125 103.625 97.542969 C 104.007812 98.007812 104.367188 98.492188 104.699219 98.992188 C 105.035156 99.492188 105.34375 100.007812 105.628906 100.539062 C 105.910156 101.070312 106.167969 101.613281 106.398438 102.167969 C 106.628906 102.722656 106.832031 103.289062 107.007812 103.867188 C 107.179688 104.441406 107.328125 105.023438 107.445312 105.617188 C 107.5625 106.207031 107.648438 106.800781 107.710938 107.398438 C 107.769531 107.996094 107.796875 108.597656 107.796875 109.199219 C 107.796875 109.800781 107.769531 110.402344 107.710938 111 C 107.648438 111.601562 107.5625 112.195312 107.445312 112.785156 C 107.328125 113.375 107.179688 113.957031 107.007812 114.535156 C 106.832031 115.109375 106.628906 115.675781 106.398438 116.230469 C 106.167969 116.789062 105.910156 117.332031 105.628906 117.863281 C 105.34375 118.394531 105.035156 118.910156 104.699219 119.410156 C 104.367188 119.910156 104.007812 120.390625 103.625 120.859375 C 103.246094 121.324219 102.839844 121.769531 102.414062 122.195312 L 64.484375 160.125 L 265.132812 160.125 C 265.734375 160.125 266.332031 160.152344 266.933594 160.210938 C 267.53125 160.269531 268.125 160.359375 268.714844 160.476562 C 269.304688 160.59375 269.890625 160.738281 270.464844 160.914062 C 271.042969 161.089844 271.605469 161.292969 272.164062 161.523438 C 272.71875 161.753906 273.261719 162.007812 273.792969 162.292969 C 274.324219 162.578125 274.839844 162.886719 275.339844 163.21875 C 275.839844 163.554688 276.324219 163.914062 276.789062 164.292969 C 277.253906 164.675781 277.699219 165.078125 278.125 165.503906 C 278.550781 165.929688 278.953125 166.375 279.335938 166.839844 C 279.71875 167.308594 280.074219 167.789062 280.410156 168.289062 C 280.742188 168.789062 281.054688 169.304688 281.335938 169.835938 C 281.621094 170.367188 281.878906 170.910156 282.109375 171.46875 C 282.339844 172.023438 282.539062 172.589844 282.714844 173.164062 C 282.890625 173.742188 283.035156 174.324219 283.152344 174.914062 C 283.269531 175.503906 283.359375 176.097656 283.417969 176.699219 C 283.476562 177.296875 283.507812 177.898438 283.507812 178.5 C 283.507812 179.101562 283.476562 179.699219 283.417969 180.300781 C 283.359375 180.898438 283.269531 181.492188 283.152344 182.082031 C 283.035156 182.675781 282.890625 183.257812 282.714844 183.832031 C 282.539062 184.410156 282.339844 184.976562 282.109375 185.53125 C 281.878906 186.085938 281.621094 186.628906 281.335938 187.160156 C 281.054688 187.691406 280.742188 188.207031 280.410156 188.707031 C 280.074219 189.207031 279.71875 189.691406 279.335938 190.15625 C 278.953125 190.621094 278.550781 191.066406 278.125 191.492188 C 277.699219 191.917969 277.253906 192.320312 276.789062 192.703125 C 276.324219 193.085938 275.839844 193.441406 275.339844 193.777344 C 274.839844 194.113281 274.324219 194.421875 273.792969 194.703125 C 273.261719 194.988281 272.71875 195.246094 272.164062 195.476562 C 271.605469 195.707031 271.042969 195.910156 270.464844 196.082031 C 269.890625 196.257812 269.304688 196.402344 268.714844 196.519531 C 268.125 196.640625 267.53125 196.726562 266.933594 196.785156 C 266.332031 196.84375 265.734375 196.875 265.132812 196.875 L 64.484375 196.875 L 102.414062 234.804688 C 102.839844 235.230469 103.246094 235.675781 103.625 236.140625 C 104.007812 236.605469 104.367188 237.089844 104.699219 237.589844 C 105.035156 238.089844 105.34375 238.605469 105.628906 239.136719 C 105.910156 239.667969 106.167969 240.210938 106.398438 240.765625 C 106.628906 241.320312 106.832031 241.886719 107.007812 242.464844 C 107.179688 243.039062 107.328125 243.621094 107.445312 244.214844 C 107.5625 244.804688 107.648438 245.398438 107.707031 245.996094 C 107.769531 246.597656 107.796875 247.195312 107.796875 247.796875 C 107.796875 248.398438 107.769531 249 107.707031 249.597656 C 107.648438 250.199219 107.5625 250.792969 107.445312 251.382812 C 107.328125 251.972656 107.179688 252.554688 107.007812 253.132812 C 106.832031 253.707031 106.628906 254.273438 106.398438 254.828125 C 106.167969 255.386719 105.910156 255.929688 105.628906 256.460938 C 105.34375 256.992188 105.035156 257.507812 104.699219 258.007812 C 104.367188 258.507812 104.007812 258.988281 103.625 259.457031 C 103.246094 259.921875 102.839844 260.367188 102.414062 260.792969 C 101.988281 261.21875 101.542969 261.621094 101.078125 262.003906 C 100.613281 262.382812 100.128906 262.742188 99.628906 263.078125 C 99.128906 263.410156 98.613281 263.71875 98.082031 264.003906 C 97.554688 264.289062 97.007812 264.542969 96.453125 264.773438 C 95.898438 265.003906 95.332031 265.207031 94.753906 265.382812 C 94.179688 265.558594 93.597656 265.703125 93.007812 265.820312 C 92.414062 265.9375 91.820312 266.027344 91.222656 266.085938 C 90.625 266.144531 90.023438 266.171875 89.421875 266.171875 C 88.820312 266.171875 88.21875 266.144531 87.621094 266.085938 C 87.019531 266.027344 86.425781 265.9375 85.835938 265.820312 C 85.246094 265.703125 84.664062 265.558594 84.085938 265.382812 C 83.511719 265.207031 82.945312 265.003906 82.390625 264.773438 C 81.832031 264.542969 81.289062 264.289062 80.757812 264.003906 C 80.226562 263.71875 79.710938 263.410156 79.210938 263.078125 C 78.710938 262.742188 78.230469 262.382812 77.765625 262.003906 C 77.296875 261.621094 76.851562 261.214844 76.425781 260.792969 L 7.128906 191.492188 C 6.703125 191.066406 6.300781 190.621094 5.917969 190.15625 C 5.535156 189.691406 5.175781 189.207031 4.84375 188.707031 C 4.507812 188.207031 4.199219 187.691406 3.917969 187.160156 C 3.632812 186.628906 3.375 186.085938 3.144531 185.53125 C 2.914062 184.972656 2.710938 184.410156 2.539062 183.832031 C 2.363281 183.257812 2.21875 182.671875 2.097656 182.082031 C 1.980469 181.492188 1.894531 180.898438 1.835938 180.300781 C 1.777344 179.699219 1.746094 179.101562 1.746094 178.5 C 1.746094 177.898438 1.777344 177.296875 1.835938 176.699219 C 1.894531 176.097656 1.980469 175.503906 2.097656 174.914062 C 2.21875 174.324219 2.363281 173.742188 2.539062 173.164062 C 2.710938 172.589844 2.914062 172.023438 3.144531 171.464844 C 3.375 170.910156 3.632812 170.367188 3.917969 169.835938 C 4.199219 169.304688 4.507812 168.789062 4.84375 168.289062 C 5.175781 167.789062 5.535156 167.304688 5.917969 166.839844 C 6.300781 166.375 6.703125 165.929688 7.128906 165.503906 Z M 7.128906 165.503906 " fill-opacity="1" fill-rule="nonzero"/><g clip-path="url(#bc70e5aee2)"><path fill="#6c757d" d="M 142.625 282.628906 C 143.226562 282.628906 143.828125 282.65625 144.429688 282.714844 C 145.027344 282.773438 145.621094 282.863281 146.210938 282.980469 C 146.800781 283.097656 147.386719 283.242188 147.960938 283.417969 C 148.535156 283.59375 149.101562 283.796875 149.660156 284.027344 C 150.214844 284.257812 150.757812 284.511719 151.289062 284.796875 C 151.820312 285.082031 152.335938 285.390625 152.835938 285.722656 C 153.335938 286.058594 153.820312 286.417969 154.285156 286.796875 C 154.75 287.179688 155.195312 287.585938 155.621094 288.007812 C 156.046875 288.433594 156.449219 288.878906 156.832031 289.347656 C 157.214844 289.8125 157.570312 290.292969 157.90625 290.792969 C 158.238281 291.292969 158.550781 291.808594 158.832031 292.339844 C 159.117188 292.871094 159.375 293.414062 159.605469 293.972656 C 159.832031 294.527344 160.035156 295.09375 160.210938 295.667969 C 160.386719 296.246094 160.53125 296.828125 160.648438 297.417969 C 160.765625 298.007812 160.855469 298.601562 160.914062 299.203125 C 160.972656 299.800781 161.003906 300.402344 161.003906 301.003906 L 161.003906 319.378906 L 320.257812 319.378906 L 320.257812 37.617188 L 161.003906 37.617188 L 161.003906 55.996094 C 161.003906 56.597656 160.972656 57.195312 160.914062 57.796875 C 160.855469 58.394531 160.765625 58.988281 160.648438 59.578125 C 160.53125 60.167969 160.386719 60.753906 160.210938 61.328125 C 160.035156 61.90625 159.832031 62.46875 159.605469 63.027344 C 159.375 63.582031 159.117188 64.125 158.832031 64.65625 C 158.550781 65.1875 158.238281 65.703125 157.90625 66.203125 C 157.570312 66.703125 157.214844 67.1875 156.832031 67.652344 C 156.449219 68.117188 156.046875 68.5625 155.621094 68.988281 C 155.195312 69.414062 154.75 69.816406 154.285156 70.199219 C 153.820312 70.582031 153.335938 70.9375 152.835938 71.273438 C 152.335938 71.609375 151.820312 71.917969 151.289062 72.199219 C 150.757812 72.484375 150.214844 72.742188 149.660156 72.972656 C 149.101562 73.203125 148.535156 73.40625 147.960938 73.578125 C 147.386719 73.753906 146.800781 73.898438 146.210938 74.015625 C 145.621094 74.132812 145.027344 74.222656 144.429688 74.28125 C 143.828125 74.339844 143.226562 74.371094 142.625 74.371094 C 142.023438 74.371094 141.425781 74.339844 140.824219 74.28125 C 140.226562 74.222656 139.632812 74.132812 139.042969 74.015625 C 138.453125 73.898438 137.867188 73.753906 137.292969 73.578125 C 136.714844 73.40625 136.152344 73.203125 135.59375 72.972656 C 135.039062 72.742188 134.496094 72.484375 133.964844 72.199219 C 133.433594 71.917969 132.917969 71.609375 132.417969 71.273438 C 131.917969 70.9375 131.433594 70.582031 130.96875 70.199219 C 130.503906 69.816406 130.058594 69.414062 129.632812 68.988281 C 129.207031 68.5625 128.804688 68.117188 128.421875 67.652344 C 128.039062 67.1875 127.683594 66.703125 127.347656 66.203125 C 127.011719 65.703125 126.703125 65.1875 126.421875 64.65625 C 126.136719 64.125 125.878906 63.582031 125.648438 63.027344 C 125.417969 62.46875 125.21875 61.90625 125.042969 61.328125 C 124.867188 60.753906 124.722656 60.167969 124.605469 59.578125 C 124.488281 58.988281 124.398438 58.394531 124.339844 57.796875 C 124.28125 57.195312 124.25 56.597656 124.25 55.996094 L 124.25 31.492188 C 124.25 30.492188 124.300781 29.488281 124.398438 28.492188 C 124.496094 27.492188 124.644531 26.503906 124.839844 25.519531 C 125.035156 24.535156 125.277344 23.5625 125.570312 22.601562 C 125.859375 21.644531 126.199219 20.699219 126.582031 19.773438 C 126.964844 18.847656 127.394531 17.941406 127.867188 17.058594 C 128.339844 16.171875 128.855469 15.3125 129.414062 14.480469 C 129.96875 13.644531 130.566406 12.839844 131.203125 12.066406 C 131.839844 11.289062 132.511719 10.546875 133.222656 9.835938 C 133.929688 9.128906 134.671875 8.457031 135.449219 7.820312 C 136.222656 7.183594 137.027344 6.585938 137.863281 6.027344 C 138.695312 5.472656 139.554688 4.957031 140.441406 4.484375 C 141.324219 4.011719 142.230469 3.582031 143.15625 3.199219 C 144.082031 2.816406 145.027344 2.476562 145.988281 2.1875 C 146.945312 1.894531 147.917969 1.652344 148.902344 1.457031 C 149.886719 1.261719 150.878906 1.113281 151.875 1.015625 C 152.875 0.917969 153.875 0.867188 154.878906 0.867188 L 326.382812 0.867188 C 327.386719 0.867188 328.386719 0.917969 329.386719 1.015625 C 330.382812 1.113281 331.375 1.261719 332.359375 1.457031 C 333.339844 1.652344 334.3125 1.894531 335.273438 2.1875 C 336.234375 2.476562 337.175781 2.816406 338.101562 3.199219 C 339.03125 3.582031 339.933594 4.011719 340.820312 4.484375 C 341.703125 4.957031 342.5625 5.472656 343.398438 6.027344 C 344.230469 6.585938 345.035156 7.183594 345.8125 7.820312 C 346.585938 8.457031 347.328125 9.128906 348.039062 9.835938 C 348.75 10.546875 349.421875 11.289062 350.058594 12.066406 C 350.695312 12.839844 351.289062 13.644531 351.847656 14.480469 C 352.40625 15.3125 352.921875 16.171875 353.394531 17.058594 C 353.867188 17.941406 354.292969 18.847656 354.679688 19.773438 C 355.0625 20.699219 355.398438 21.644531 355.691406 22.601562 C 355.980469 23.5625 356.226562 24.535156 356.421875 25.519531 C 356.617188 26.503906 356.761719 27.492188 356.863281 28.492188 C 356.960938 29.488281 357.007812 30.492188 357.007812 31.492188 L 357.007812 325.503906 C 357.007812 326.507812 356.960938 327.507812 356.863281 328.507812 C 356.761719 329.503906 356.617188 330.496094 356.421875 331.480469 C 356.226562 332.460938 355.980469 333.433594 355.691406 334.394531 C 355.398438 335.355469 355.0625 336.296875 354.679688 337.222656 C 354.292969 338.152344 353.867188 339.054688 353.394531 339.941406 C 352.921875 340.824219 352.40625 341.683594 351.847656 342.519531 C 351.289062 343.351562 350.695312 344.15625 350.058594 344.933594 C 349.421875 345.707031 348.75 346.449219 348.039062 347.160156 C 347.328125 347.871094 346.585938 348.542969 345.8125 349.179688 C 345.035156 349.816406 344.230469 350.410156 343.398438 350.96875 C 342.5625 351.527344 341.703125 352.039062 340.820312 352.515625 C 339.933594 352.988281 339.03125 353.414062 338.101562 353.800781 C 337.175781 354.183594 336.234375 354.519531 335.273438 354.8125 C 334.3125 355.101562 333.339844 355.347656 332.359375 355.542969 C 331.375 355.738281 330.382812 355.882812 329.386719 355.984375 C 328.386719 356.082031 327.386719 356.128906 326.382812 356.128906 L 154.878906 356.128906 C 153.875 356.128906 152.875 356.082031 151.875 355.984375 C 150.878906 355.882812 149.886719 355.738281 148.902344 355.542969 C 147.917969 355.347656 146.945312 355.101562 145.988281 354.8125 C 145.027344 354.519531 144.082031 354.183594 143.15625 353.800781 C 142.230469 353.414062 141.324219 352.988281 140.441406 352.515625 C 139.554688 352.042969 138.695312 351.527344 137.863281 350.96875 C 137.027344 350.410156 136.222656 349.816406 135.449219 349.179688 C 134.671875 348.542969 133.929688 347.871094 133.222656 347.160156 C 132.511719 346.449219 131.839844 345.707031 131.203125 344.933594 C 130.566406 344.15625 129.96875 343.351562 129.414062 342.519531 C 128.855469 341.683594 128.339844 340.824219 127.867188 339.941406 C 127.394531 339.054688 126.964844 338.152344 126.582031 337.222656 C 126.199219 336.296875 125.859375 335.355469 125.570312 334.394531 C 125.277344 333.433594 125.035156 332.460938 124.839844 331.480469 C 124.644531 330.496094 124.496094 329.503906 124.398438 328.507812 C 124.300781 327.507812 124.25 326.507812 124.25 325.503906 L 124.25 301.003906 C 124.25 300.402344 124.28125 299.800781 124.339844 299.203125 C 124.398438 298.601562 124.488281 298.007812 124.605469 297.417969 C 124.722656 296.828125 124.867188 296.246094 125.042969 295.667969 C 125.21875 295.09375 125.417969 294.527344 125.648438 293.972656 C 125.878906 293.414062 126.136719 292.871094 126.421875 292.339844 C 126.703125 291.808594 127.011719 291.292969 127.347656 290.792969 C 127.683594 290.292969 128.039062 289.8125 128.421875 289.347656 C 128.804688 288.878906 129.207031 288.433594 129.632812 288.007812 C 130.058594 287.585938 130.503906 287.179688 130.96875 286.796875 C 131.433594 286.417969 131.917969 286.058594 132.417969 285.722656 C 132.917969 285.390625 133.433594 285.082031 133.964844 284.796875 C 134.496094 284.511719 135.039062 284.257812 135.59375 284.027344 C 136.152344 283.796875 136.714844 283.59375 137.292969 283.417969 C 137.867188 283.242188 138.453125 283.097656 139.042969 282.980469 C 139.632812 282.863281 140.226562 282.773438 140.824219 282.714844 C 141.425781 282.65625 142.023438 282.628906 142.625 282.628906 Z M 142.625 282.628906 " fill-opacity="1" fill-rule="nonzero"/></g></g></g></g></svg>